<?xml version="1.0" encoding="UTF-8"?>
<svg width="133px" height="20px" viewBox="0 0 133 20" version="1.1" xmlns="http://www.w3.org/2000/svg" xmlns:xlink="http://www.w3.org/1999/xlink">
    <title>header_main</title>
    <defs>
        <polygon id="path-1" points="0.179689706 -3.72869565 19.864577 -3.72869565 19.864577 15.999942 0.179689706 15.999942"></polygon>
    </defs>
    <g id="Symbols" stroke="none" stroke-width="1" fill="none" fill-rule="evenodd">
        <g id="header_main" transform="translate(-60.000000, -50.000000)">
            <g id="logo" transform="translate(60.000000, 50.000000)">
                <polygon id="Fill-1" fill="#1E1E1E" points="0 1 0 20 3.7828303 20 3.7828303 12.5325528 14.1248251 12.5325528 14.1248251 8.98614452 3.7828303 8.98614452 3.7828303 4.54669752 15 4.54669752 15 1"></polygon>
                <g id="Group-15" transform="translate(15.000000, 0.000000)">
                    <path d="M34.896649,6.776 C34.896649,7.30585507 34.7239873,7.91078261 34.4671637,8.28150725 C34.1715853,8.70701449 33.7724676,9.05571014 33.2810902,9.31715942 C32.7917373,9.57744928 32.2396245,9.70933333 31.6400804,9.70933333 L26.3378892,9.70933333 L26.3378892,4.15571014 L31.6400804,4.15571014 C32.2497471,4.15571014 32.8076441,4.27310145 33.2993108,4.5044058 C33.7883745,4.73397101 34.1860461,5.04208696 34.4813353,5.42034783 C34.7338206,5.74411594 34.896649,6.27628986 34.896649,6.776 L34.896649,6.776 Z M34.8185608,12.6528116 C35.4337225,12.376 36.0002961,12.018029 36.5029529,11.5890435 C37.1860804,11.0049855 37.7318304,10.3136812 38.1245853,9.53368116 C38.5011441,8.78498551 38.7264431,7.75397101 38.7264431,6.776 C38.7264431,5.5875942 38.4091735,4.40788406 37.8567716,3.53889855 C37.2841245,2.64237681 36.5130755,1.9217971 35.5653157,1.39657971 C34.6152422,0.869623188 33.5564235,0.602086957 32.4172029,0.602086957 L22.6897225,0.602086957 L22.6897225,19.6394783 L26.3378892,19.6394783 L26.3378892,13.2617971 L30.9326588,13.2617971 L34.9675069,19.6049855 L34.9883304,19.6374493 L39.0798647,19.671942 L34.7239873,12.6954203 L34.8185608,12.6528116 Z" id="Fill-2" fill="#1E1E1E"></path>
                    <polygon id="Fill-4" fill="#1E1E1E" points="51.6888588 7.98753623 45.9375157 0.761449275 45.8102608 0.602318841 42.4339569 0.602318841 42.4339569 19.6394203 46.082702 19.6394203 46.082702 6.75855072 51.6888588 13.273913 57.2950157 6.75855072 57.2950157 19.6394203 60.9437608 19.6394203 60.9437608 0.602318841 57.5651431 0.602318841"></polygon>
                    <polygon id="Fill-6" fill="#1E1E1E" points="64.9710025 19.6395072 79.0879093 19.6395072 79.0879093 16.0858841 68.6197475 16.0858841 68.6197475 11.6638551 77.9845515 11.6638551 77.9845515 8.11023188 68.6197475 8.11023188 68.6197475 4.15573913 79.0879093 4.15573913 79.0879093 0.602115942 64.9710025 0.602115942"></polygon>
                    <polygon id="Fill-8" fill="#1E1E1E" points="95.730826 13.1545507 86.4533652 0.729333333 86.3278456 0.602086957 82.9535662 0.602086957 82.9535662 19.6394783 86.6023113 19.6394783 86.6023113 6.95194203 95.930674 19.6104928 95.952076 19.6394783 99.3784142 19.6394783 99.3784142 0.602086957 95.730826 0.602086957"></polygon>
                    <polygon id="Fill-10" fill="#1E1E1E" points="102.474179 0.602202899 102.474179 4.15582609 108.326458 4.15582609 108.326458 19.6395942 111.975203 19.6395942 111.975203 4.15582609 117.992336 4.15582609 117.992336 0.602202899"></polygon>
                    <g id="Group-14" transform="translate(0.000000, 4.000000)">
                        <mask id="mask-2" fill="white">
                            <use xlink:href="#path-1"></use>
                        </mask>
                        <g id="Clip-13"></g>
                        <path d="M16.311273,6.13617391 C16.311273,9.61153623 13.489974,12.4387826 10.0219887,12.4387826 C6.55400343,12.4387826 3.73270441,9.61153623 3.73270441,6.13617391 C3.73270441,2.66052174 6.55400343,-0.167304348 10.0219887,-0.167304348 C13.489974,-0.167304348 16.311273,2.66052174 16.311273,6.13617391 M10.0219887,-3.72875362 C4.59485637,-3.72875362 0.179689706,0.696753623 0.179689706,6.13617391 C0.179689706,11.5750145 4.59485637,15.999942 10.0219887,15.999942 C15.4494103,15.999942 19.864577,11.5750145 19.864577,6.13617391 C19.864577,0.696753623 15.4494103,-3.72875362 10.0219887,-3.72875362" id="Fill-12" fill="#1E1E1E" mask="url(#mask-2)"></path>
                    </g>
                </g>
            </g>
        </g>
    </g>
</svg>